<?xml version="1.0" encoding="UTF-8" standalone="no"?>
<!-- Created with Inkscape (http://www.inkscape.org/) -->

<svg
   width="512"
   height="512"
   viewBox="0 0 512 512"
   version="1.1"
   id="svg1"
   inkscape:version="1.3.2 (091e20e, 2023-11-25, custom)"
   sodipodi:docname="iso_road_icon.svg"
   inkscape:export-filename="iso_road_icon.png"
   inkscape:export-xdpi="96"
   inkscape:export-ydpi="96"
   xmlns:inkscape="http://www.inkscape.org/namespaces/inkscape"
   xmlns:sodipodi="http://sodipodi.sourceforge.net/DTD/sodipodi-0.dtd"
   xmlns="http://www.w3.org/2000/svg"
   xmlns:svg="http://www.w3.org/2000/svg">
  <sodipodi:namedview
     id="namedview1"
     pagecolor="#ffffff"
     bordercolor="#000000"
     borderopacity="0.25"
     inkscape:showpageshadow="2"
     inkscape:pageopacity="0.0"
     inkscape:pagecheckerboard="0"
     inkscape:deskcolor="#d1d1d1"
     inkscape:document-units="px"
     showgrid="true"
     inkscape:zoom="1.0330388"
     inkscape:cx="301.53756"
     inkscape:cy="232.32428"
     inkscape:window-width="1920"
     inkscape:window-height="1017"
     inkscape:window-x="-8"
     inkscape:window-y="-8"
     inkscape:window-maximized="1"
     inkscape:current-layer="layer1">
    <inkscape:grid
       type="axonomgrid"
       id="grid1"
       units="mm"
       originx="0"
       originy="0"
       spacingx="0"
       spacingy="24"
       empcolor="#0099e5"
       empopacity="0.30196078"
       color="#0099e5"
       opacity="0.14901961"
       empspacing="5"
       dotted="false"
       gridanglex="30"
       gridanglez="30"
       visible="true"
       enabled="true" />
    <inkscape:grid
       id="grid4"
       units="px"
       originx="0"
       originy="0"
       spacingx="16"
       spacingy="16"
       empcolor="#0099e5"
       empopacity="0.30196078"
       color="#0099e5"
       opacity="0.14901961"
       empspacing="5"
       dotted="false"
       gridanglex="30"
       gridanglez="30"
       visible="true"
       enabled="false" />
  </sodipodi:namedview>
  <defs
     id="defs1">
    <mask
       maskUnits="userSpaceOnUse"
       id="mask31">
      <path
         id="path31"
         mask="none"
         style="fill:#ffffff;fill-opacity:1"
         d="m 64,16 h 384 c 26.592,0 48,21.408 48,48 v 384 c 0,26.592 -21.408,48 -48,48 H 64 C 37.408,496 16,474.592 16,448 V 64 C 16,37.408 37.408,16 64,16 Z" />
    </mask>
    <mask
       maskUnits="userSpaceOnUse"
       id="mask32">
      <path
         id="path32"
         mask="none"
         style="fill:#ffffff;fill-opacity:1"
         d="m 64,16 h 384 c 26.592,0 48,21.408 48,48 v 384 c 0,26.592 -21.408,48 -48,48 H 64 C 37.408,496 16,474.592 16,448 V 64 C 16,37.408 37.408,16 64,16 Z" />
    </mask>
    <mask
       maskUnits="userSpaceOnUse"
       id="mask33">
      <path
         id="path33"
         mask="none"
         style="fill:#ffffff;fill-opacity:1"
         d="m 64,16 h 384 c 26.592,0 48,21.408 48,48 v 384 c 0,26.592 -21.408,48 -48,48 H 64 C 37.408,496 16,474.592 16,448 V 64 C 16,37.408 37.408,16 64,16 Z" />
    </mask>
    <mask
       maskUnits="userSpaceOnUse"
       id="mask34">
      <path
         id="path34"
         mask="none"
         style="fill:#ffffff;fill-opacity:1"
         d="m 64,16 h 384 c 26.592,0 48,21.408 48,48 v 384 c 0,26.592 -21.408,48 -48,48 H 64 C 37.408,496 16,474.592 16,448 V 64 C 16,37.408 37.408,16 64,16 Z" />
    </mask>
  </defs>
  <g
     inkscape:label="Layer 1"
     inkscape:groupmode="layer"
     id="layer1">
    <rect
       style="fill:#2ecc71"
       id="rect4"
       width="480"
       height="480"
       x="16"
       y="16"
       ry="48" />
    <path
       style="fill:#7f8c8d"
       d="M 290.98453,192 498.83063,312 706.67672,192 V 144 L 498.83063,264 290.98453,144 Z"
       id="path5"
       mask="url(#mask34)" />
    <path
       style="fill:#bdc3c7"
       d="M 290.98453,144 498.83063,24 706.67672,144 498.83063,264 Z"
       id="path6"
       mask="url(#mask33)" />
    <path
       style="fill:#ffffff"
       d="m 478.04602,156 -20.78461,-12 -83.13844,48 20.78461,12 z"
       id="path8" />
    <path
       style="fill:#7f8c8d"
       d="M 62.353826,324 270.19992,444 478.04601,324 V 276 L 270.19992,396 62.353826,276 Z"
       id="path1" />
    <path
       style="fill:#bdc3c7"
       d="M 62.353826,276 270.19992,156 478.04601,276 270.19992,396 Z"
       id="path2" />
    <path
       style="fill:#ffffff"
       d="m 353.33836,204 -83.13844,48 20.78461,12 83.13844,-48 z"
       id="path3" />
    <path
       style="fill:#ffffff"
       d="m 249.41531,288 -20.78461,-12 -83.13844,48 20.78461,12 z"
       id="path4" />
    <path
       style="fill:#ffffff"
       d="m 124.70766,336 -83.13844,48 20.78461,12 83.13844,-48 z"
       id="path11" />
    <path
       style="fill:#7f8c8d"
       d="M -166.27688,456 41.56922,576 249.41531,456 V 408 L 41.56922,528 -166.27688,408 Z"
       id="path9"
       mask="url(#mask32)" />
    <path
       style="fill:#bdc3c7"
       d="M -166.27688,408 41.56922,288 249.41531,408 41.56922,528 Z"
       id="path10"
       mask="url(#mask31)" />
    <path
       style="fill:#ffffff"
       d="m 145.49227,348 -20.78461,-12 -83.138442,48 20.78461,12 z"
       id="path12" />
    <path
       style="fill:#16a085"
       d="M 31.176912,198 H 155.88457 L 93.530743,90 Z"
       id="path13" />
    <path
       style="fill:#43a016;fill-opacity:1"
       d="M 124.70766,132 H 249.41532 L 187.06149,24 Z"
       id="path14" />
  </g>
</svg>
